<?xml version="1.0" encoding="UTF-8" standalone="no"?>
<svg width="300px" height="300px" viewBox="0 0 300 300" version="1.1" xmlns="http://www.w3.org/2000/svg" xmlns:xlink="http://www.w3.org/1999/xlink" xmlns:sketch="http://www.bohemiancoding.com/sketch/ns">
    <!-- Generator: Sketch 3.1 (8751) - http://www.bohemiancoding.com/sketch -->
    <title>Slice 2</title>
    <desc>Created with Sketch.</desc>
    <defs></defs>
    <g id="Page-1" stroke="none" stroke-width="1" fill="none" fill-rule="evenodd" sketch:type="MSPage">
        <g id="Imported-Layers" sketch:type="MSLayerGroup" transform="translate(67.000000, 63.000000)" fill="#fff">
            <path d="M125.180973,167.251613 L11.4896,167.251613 C9.185,167.251613 7.3146,165.381213 7.3146,163.076613 L7.3146,3.90557333 C7.3146,1.60097333 9.185,-0.269426667 11.4896,-0.269426667 L125.180973,-0.269426667 C127.485573,-0.269426667 129.355973,1.60097333 129.355973,3.90557333 L129.355973,163.076613 C129.355973,165.381213 127.485573,167.251613 125.180973,167.251613 L125.180973,167.251613 Z M15.6646,158.901613 L121.005973,158.901613 L121.005973,8.08057333 L15.6646,8.08057333 L15.6646,158.901613 Z" id="Fill-1" sketch:type="MSShapeGroup"></path>
            <path d="M94.8671333,68.7127067 L49.37856,68.7127067 C47.07396,68.7127067 45.20356,66.8445333 45.20356,64.5377067 L45.20356,34.2171867 C45.20356,31.9125867 47.07396,30.0421867 49.37856,30.0421867 L94.8671333,30.0421867 C97.17396,30.0421867 99.0421333,31.9125867 99.0421333,34.2171867 L99.0421333,64.5377067 C99.0421333,66.8445333 97.17396,68.7127067 94.8671333,68.7127067 L94.8671333,68.7127067 Z M53.55356,60.3627067 L90.6921333,60.3627067 L90.6921333,38.3921867 L53.55356,38.3921867 L53.55356,60.3627067 Z" id="Fill-2" sketch:type="MSShapeGroup"></path>
            <path d="M19.06472,41.2445467 L3.90557333,41.2445467 C1.60097333,41.2445467 -0.269426667,39.3763733 -0.269426667,37.0695467 C-0.269426667,34.7649467 1.60097333,32.8945467 3.90557333,32.8945467 L19.06472,32.8945467 C21.3715467,32.8945467 23.2419467,34.7649467 23.2419467,37.0695467 C23.2419467,39.3763733 21.3715467,41.2445467 19.06472,41.2445467 L19.06472,41.2445467 Z" id="Fill-3" sketch:type="MSShapeGroup"></path>
            <path d="M19.06472,86.72644 L3.90557333,86.72644 C1.60097333,86.72644 -0.269426667,84.85604 -0.269426667,82.55144 C-0.269426667,80.24684 1.60097333,78.37644 3.90557333,78.37644 L19.06472,78.37644 C21.3715467,78.37644 23.2419467,80.24684 23.2419467,82.55144 C23.2419467,84.85604 21.3715467,86.72644 19.06472,86.72644 L19.06472,86.72644 Z" id="Fill-4" sketch:type="MSShapeGroup"></path>
            <path d="M19.06472,132.208333 L3.90557333,132.208333 C1.60097333,132.208333 -0.269426667,130.337933 -0.269426667,128.033333 C-0.269426667,125.728733 1.60097333,123.858333 3.90557333,123.858333 L19.06472,123.858333 C21.3715467,123.858333 23.2419467,125.728733 23.2419467,128.033333 C23.2419467,130.337933 21.3715467,132.208333 19.06472,132.208333 L19.06472,132.208333 Z" id="Fill-5" sketch:type="MSShapeGroup"></path>
            <path d="M147.926373,53.55356 L125.180973,53.55356 C122.876373,53.55356 121.005973,51.68316 121.005973,49.37856 L121.005973,19.05804 C121.005973,16.7512133 122.876373,14.88304 125.180973,14.88304 L147.926373,14.88304 C150.230973,14.88304 152.101373,16.7512133 152.101373,19.05804 L152.101373,49.37856 C152.101373,51.68316 150.230973,53.55356 147.926373,53.55356 L147.926373,53.55356 Z M129.355973,45.20356 L143.751373,45.20356 L143.751373,23.23304 L129.355973,23.23304 L129.355973,45.20356 Z" id="Fill-6" sketch:type="MSShapeGroup"></path>
            <path d="M147.926373,83.87408 L125.180973,83.87408 C122.876373,83.87408 121.005973,82.00368 121.005973,79.69908 L121.005973,49.37856 C121.005973,47.07396 122.876373,45.20356 125.180973,45.20356 L147.926373,45.20356 C150.230973,45.20356 152.101373,47.07396 152.101373,49.37856 L152.101373,79.69908 C152.101373,82.00368 150.230973,83.87408 147.926373,83.87408 L147.926373,83.87408 Z M129.355973,75.52408 L143.751373,75.52408 L143.751373,53.55356 L129.355973,53.55356 L129.355973,75.52408 Z" id="Fill-7" sketch:type="MSShapeGroup"></path>
            <path d="M147.926373,114.185693 L125.180973,114.185693 C122.876373,114.185693 121.005973,112.315293 121.005973,110.010693 L121.005973,79.6901733 C121.005973,77.3855733 122.876373,75.5151733 125.180973,75.5151733 L147.926373,75.5151733 C150.230973,75.5151733 152.101373,77.3855733 152.101373,79.6901733 L152.101373,110.010693 C152.101373,112.315293 150.230973,114.185693 147.926373,114.185693 L147.926373,114.185693 Z M129.355973,105.835693 L143.751373,105.835693 L143.751373,83.8651733 L129.355973,83.8651733 L129.355973,105.835693 Z" id="Fill-8" sketch:type="MSShapeGroup"></path>
            <path d="M147.926373,144.51512 L125.180973,144.51512 C122.876373,144.51512 121.005973,142.64472 121.005973,140.34012 L121.005973,110.0196 C121.005973,107.715 122.876373,105.8446 125.180973,105.8446 L147.926373,105.8446 C150.230973,105.8446 152.101373,107.715 152.101373,110.0196 L152.101373,140.34012 C152.101373,142.64472 150.230973,144.51512 147.926373,144.51512 L147.926373,144.51512 Z M129.355973,136.16512 L143.751373,136.16512 L143.751373,114.1946 L129.355973,114.1946 L129.355973,136.16512 Z" id="Fill-9" sketch:type="MSShapeGroup"></path>
        </g>
    </g>
</svg>