<?xml version="1.0" encoding="UTF-8" standalone="no"?>
<svg width="300px" height="300px" viewBox="0 0 300 300" version="1.1" xmlns="http://www.w3.org/2000/svg" xmlns:xlink="http://www.w3.org/1999/xlink" xmlns:sketch="http://www.bohemiancoding.com/sketch/ns">
    <!-- Generator: Sketch 3.1 (8751) - http://www.bohemiancoding.com/sketch -->
    <title>Slice 2</title>
    <desc>Created with Sketch.</desc>
    <defs></defs>
    <g id="Page-1" stroke="none" stroke-width="1" fill="none" fill-rule="evenodd" sketch:type="MSPage">
        <g id="Imported-Layers" sketch:type="MSLayerGroup" transform="translate(76.000000, 51.000000)" fill="#fff">
            <path d="M119.12936,5.34912 C119.12936,1.83345333 116.269067,-1.02684 112.74544,-1.02684 C109.24304,-1.02684 106.372133,1.83345333 106.372133,5.34912 L106.372133,30.4602667 C106.372133,33.9865467 109.232427,36.84684 112.74544,36.84684 C116.27968,36.84684 119.12936,33.9945067 119.12936,30.4602667 L119.12936,5.34912 Z" id="Fill-1" sketch:type="MSShapeGroup"></path>
            <path d="M132.998333,19.7752933 L124.353773,19.7752933 L124.353773,30.4602667 C124.353773,36.8574533 119.1612,42.06064 112.74544,42.06064 C106.36152,42.06064 101.158333,36.8574533 101.158333,30.4602667 L101.158333,19.7752933 L48.34108,19.7752933 L48.34108,30.4602667 C48.34108,36.8574533 43.1485067,42.06064 36.7539733,42.06064 C30.3567867,42.06064 25.1536,36.8574533 25.1536,30.4602667 L25.1536,19.7752933 L16.4904667,19.7752933 C6.65456,19.7752933 -1.31605333,27.7459067 -1.32666667,37.5818133 L-1.32666667,154.524827 C-1.31605333,164.360733 6.64394667,172.331347 16.4904667,172.331347 L132.998333,172.331347 C142.83424,172.320733 150.79424,164.35012 150.815467,154.524827 L150.815467,37.5818133 C150.79424,27.7352933 142.83424,19.7752933 132.998333,19.7752933 L132.998333,19.7752933 Z M136.065587,154.524827 C136.065587,156.204387 134.677893,157.594733 132.998333,157.594733 L16.4904667,157.594733 C14.8002933,157.594733 13.4232133,156.204387 13.4126,154.524827 L13.4126,60.96564 L136.054973,60.96564 L136.054973,154.524827 L136.065587,154.524827 Z" id="Fill-2" sketch:type="MSShapeGroup"></path>
            <path d="M43.12728,5.34912 C43.12728,1.83345333 40.2669867,-1.02684 36.7539733,-1.02684 C33.2197333,-1.02684 30.3674,1.83345333 30.3674,5.34912 L30.3674,30.4602667 C30.3674,33.9865467 33.2197333,36.84684 36.7539733,36.84684 C40.2669867,36.84684 43.12728,33.9945067 43.12728,30.4602667 L43.12728,5.34912 Z" id="Fill-3" sketch:type="MSShapeGroup"></path>
            <path d="M107.345907,72.0035067 L120.798307,72.0035067 L120.798307,85.9653467 L107.345907,85.9653467 L107.345907,72.0035067 Z" id="Fill-4" sketch:type="MSShapeGroup"></path>
            <path d="M87.6847067,72.0035067 L101.126493,72.0035067 L101.126493,85.9653467 L87.6847067,85.9653467 L87.6847067,72.0035067 Z" id="Fill-5" sketch:type="MSShapeGroup"></path>
            <path d="M68.0128933,72.0035067 L81.4440667,72.0035067 L81.4440667,85.9653467 L68.0128933,85.9653467 L68.0128933,72.0035067 Z" id="Fill-6" sketch:type="MSShapeGroup"></path>
            <path d="M107.345907,91.4577467 L120.798307,91.4577467 L120.798307,105.419587 L107.345907,105.419587 L107.345907,91.4577467 Z" id="Fill-7" sketch:type="MSShapeGroup"></path>
            <path d="M87.6847067,91.4577467 L101.126493,91.4577467 L101.126493,105.419587 L87.6847067,105.419587 L87.6847067,91.4577467 Z" id="Fill-8" sketch:type="MSShapeGroup"></path>
            <path d="M68.0128933,91.4577467 L81.4440667,91.4577467 L81.4440667,105.419587 L68.0128933,105.419587 L68.0128933,91.4577467 Z" id="Fill-9" sketch:type="MSShapeGroup"></path>
            <path d="M48.34108,91.4577467 L61.7828667,91.4577467 L61.7828667,105.419587 L48.34108,105.419587 L48.34108,91.4577467 Z" id="Fill-10" sketch:type="MSShapeGroup"></path>
            <path d="M28.6692667,91.4577467 L42.1216667,91.4577467 L42.1216667,105.419587 L28.6692667,105.419587 L28.6692667,91.4577467 Z" id="Fill-11" sketch:type="MSShapeGroup"></path>
            <path d="M107.345907,110.9226 L120.798307,110.9226 L120.798307,124.873827 L107.345907,124.873827 L107.345907,110.9226 Z" id="Fill-12" sketch:type="MSShapeGroup"></path>
            <path d="M87.6847067,110.9226 L101.126493,110.9226 L101.126493,124.873827 L87.6847067,124.873827 L87.6847067,110.9226 Z" id="Fill-13" sketch:type="MSShapeGroup"></path>
            <path d="M68.0128933,110.9226 L81.4440667,110.9226 L81.4440667,124.873827 L68.0128933,124.873827 L68.0128933,110.9226 Z" id="Fill-14" sketch:type="MSShapeGroup"></path>
            <path d="M48.34108,110.9226 L61.7828667,110.9226 L61.7828667,124.873827 L48.34108,124.873827 L48.34108,110.9226 Z" id="Fill-15" sketch:type="MSShapeGroup"></path>
            <path d="M28.6692667,110.9226 L42.1216667,110.9226 L42.1216667,124.873827 L28.6692667,124.873827 L28.6692667,110.9226 Z" id="Fill-16" sketch:type="MSShapeGroup"></path>
            <path d="M87.6847067,130.387453 L101.126493,130.387453 L101.126493,144.33868 L87.6847067,144.33868 L87.6847067,130.387453 Z" id="Fill-17" sketch:type="MSShapeGroup"></path>
            <path d="M68.0128933,130.387453 L81.4440667,130.387453 L81.4440667,144.33868 L68.0128933,144.33868 L68.0128933,130.387453 Z" id="Fill-18" sketch:type="MSShapeGroup"></path>
            <path d="M48.34108,130.387453 L61.7828667,130.387453 L61.7828667,144.33868 L48.34108,144.33868 L48.34108,130.387453 Z" id="Fill-19" sketch:type="MSShapeGroup"></path>
            <path d="M28.6692667,130.387453 L42.1216667,130.387453 L42.1216667,144.33868 L28.6692667,144.33868 L28.6692667,130.387453 Z" id="Fill-20" sketch:type="MSShapeGroup"></path>
        </g>
    </g>
</svg>