<?xml version="1.0" encoding="UTF-8" standalone="no"?>
<svg width="300px" height="300px" viewBox="0 0 300 300" version="1.1" xmlns="http://www.w3.org/2000/svg" xmlns:xlink="http://www.w3.org/1999/xlink" xmlns:sketch="http://www.bohemiancoding.com/sketch/ns">
    <!-- Generator: Sketch 3.1 (8751) - http://www.bohemiancoding.com/sketch -->
    <title>Slice 2</title>
    <desc>Created with Sketch.</desc>
    <defs></defs>
    <g id="Page-1" stroke="none" stroke-width="1" fill="none" fill-rule="evenodd" sketch:type="MSPage">
        <g id="Imported-Layers" sketch:type="MSLayerGroup" transform="translate(114.842742, 108.959459)" fill="#fff">
            <path d="M47.5195266,16.7178775 C44.021658,16.7178775 41.177702,19.6618573 41.177702,23.2805802 C41.177702,26.9002753 44.021658,29.8471719 47.5195266,29.8471719 C48.8076216,29.8471719 50.059075,29.4407705 51.1122877,28.6931085 C49.8241926,27.2191741 49.0979363,25.2902256 49.0979363,23.2844692 C49.0979363,21.279685 49.8204345,19.3536533 51.1122877,17.8768022 C50.059075,17.1242789 48.8076216,16.7178775 47.5195266,16.7178775 L47.5195266,16.7178775 Z" id="Fill-1" sketch:type="MSShapeGroup"></path>
            <path d="M50.5476304,23.2805802 C50.5476304,24.921742 51.1461107,26.5016519 52.2059001,27.7014112 C53.266629,26.4977629 53.8651093,24.921742 53.8651093,23.2805802 C53.8651093,21.6403906 53.266629,20.0643697 52.2059001,18.8597492 C51.1423526,20.0643697 50.5476304,21.6403906 50.5476304,23.2805802 L50.5476304,23.2805802 Z" id="Fill-2" sketch:type="MSShapeGroup"></path>
            <path d="M53.2966939,28.6892195 C54.3499066,29.4407705 55.6013599,29.8432829 56.889455,29.8432829 C60.386384,29.8432829 63.2312796,26.9002753 63.2312796,23.2766912 C63.2312796,19.6579683 60.386384,16.7139885 56.889455,16.7139885 C55.6013599,16.7139885 54.3499066,17.1203899 53.2966939,17.8729132 C54.584789,19.3458753 55.3110453,21.275796 55.3110453,23.2805802 C55.3110453,25.2863366 54.584789,27.215285 53.2966939,28.6892195 L53.2966939,28.6892195 Z" id="Fill-3" sketch:type="MSShapeGroup"></path>
            <path d="M6.19149987,39.0155106 L0.0150324731,39.0155106 L0.0150324731,41.3323877 L7.11223884,41.3323877 C6.99103953,41.0280728 6.86702163,40.7169521 6.73830608,40.3980533 C6.5579164,39.945956 6.37095001,39.4821917 6.19149987,39.0155106 L6.19149987,39.0155106 Z" id="Fill-4" sketch:type="MSShapeGroup"></path>
            <path d="M70.4496853,41.3323877 L70.4496853,39.0155106 L26.1527451,39.0155106 L26.2222703,41.3323877 L70.4496853,41.3323877 Z" id="Fill-5" sketch:type="MSShapeGroup"></path>
            <path d="M23.4515976,15.1914414 C23.4515976,18.0206955 21.2352473,20.3152108 18.4974582,20.3152108 C15.7587295,20.3152108 13.5423792,18.0206955 13.5423792,15.1914414 C13.5423792,12.3582984 15.7587295,10.0647553 18.4974582,10.0647553 C21.2352473,10.0647553 23.4515976,12.3582984 23.4515976,15.1914414 L23.4515976,15.1914414 Z" id="Fill-6" sketch:type="MSShapeGroup"></path>
            <path d="M32.1901621,12.4419121 C31.0627266,14.6858703 29.4298242,17.1242789 28.4649274,18.8150256 C27.2538738,20.9335632 26.1705962,21.3778825 23.5098484,21.3778825 C20.8528588,21.3778825 14.2066266,21.252462 14.2066266,21.252462 C11.9132349,21.1270414 10.3385834,22.1906854 9.2524872,24.1925528 C8.45576613,25.6548202 7.86104391,27.1316714 7.25974499,28.6318566 C6.58046511,30.3109362 6.11070032,31.1315171 6.35309895,33.7556259 C6.59549758,36.3797348 8.70943911,40.5079178 9.31449616,42.6352058 C9.67057786,43.8845499 10.8600223,44.0965009 11.659562,43.59968 C11.0761141,48.9694292 9.46857901,63.6825225 9.07209753,66.4135791 C8.5882398,69.7707661 11.9752439,70.6137088 12.8452483,67.3206905 C13.5498955,64.6469968 16.5112927,53.736382 17.5062545,50.067102 C18.5002768,53.736382 21.4626135,64.6469968 22.1672607,67.3206905 C23.0372651,70.6137088 26.4280273,69.7707661 25.9394719,66.4135791 C25.5101069,63.4394595 23.6423221,46.2578177 23.2279896,42.3989485 C24.163761,42.0081031 24.6006423,41.6279524 24.6006423,41.6279524 L24.1675191,27.4816822 C28.6190102,24.9596598 29.9512632,24.3636692 31.1256751,22.1226277 C32.6928104,19.1222573 34.3914799,15.4345045 35.1703499,13.3723575 C35.9482804,11.3102105 33.2321004,10.368098 32.1901621,12.4419121 L32.1901621,12.4419121 Z M9.79929341,33.2694998 C9.63769433,32.3614162 10.5142754,30.3527431 11.1277882,29.0917319 L11.1277882,37.7282486 C10.5255498,35.8741636 9.93082755,34.0404959 9.79929341,33.2694998 L9.79929341,33.2694998 Z" id="Fill-7" sketch:type="MSShapeGroup"></path>
            <path d="M0.0150324731,-0.372372613 L0.0150324731,37.5532432 L5.64469366,37.5532432 C5.19277993,36.280565 4.83387964,35.0205261 4.73053138,33.9150753 C4.47403981,31.1042941 4.96165566,29.9162018 5.57892659,28.4121276 L5.75461862,27.9785031 C6.36061519,26.4744288 6.98446282,24.917853 7.83191849,23.3603049 C9.13504601,20.9607863 11.010347,19.6919971 13.4615797,19.5743546 C12.4966828,18.3891791 11.9132349,16.8627431 11.9132349,15.1953305 C11.9132349,11.43952 14.8671159,8.38178667 18.4974582,8.38178667 C22.1268609,8.38178667 25.0807419,11.43952 25.0807419,15.1953305 C25.0807419,16.9191337 24.4531361,18.4883488 23.4299884,19.6881081 L23.5070298,19.6881081 C25.8295469,19.6881081 26.2513957,19.3575423 27.055633,17.9526378 C27.3966823,17.3566472 27.8222892,16.6653759 28.277961,15.9206306 C29.1000494,14.5837838 30.0320627,13.0651258 30.7367099,11.663138 C31.3896829,10.364209 32.5603368,9.58932396 33.8709805,9.58932396 C34.9129188,9.58932396 35.8674809,10.0948951 36.42838,10.9456159 C36.9977349,11.8041146 37.0898088,12.9124822 36.6895692,13.9839041 C35.8674809,16.1598047 34.1312302,19.9195041 32.5565787,22.9276526 C31.2581488,25.4078681 29.7342318,26.2663668 26.0606712,28.3324029 L25.8220307,28.4646292 L26.101071,37.5493542 L70.4459272,37.5493542 L70.4459272,-0.372372613 L0.0150324731,-0.372372613 Z M36.8765356,9.68460468 L39.0308769,5.34349838 C39.2140852,4.97501477 39.6509664,4.83112144 40.0070481,5.02071063 C40.366888,5.21029982 40.5021802,5.66239712 40.318972,6.03088072 L39.6030504,7.47078631 C42.2346728,6.60062054 48.8592958,5.2900245 54.0041597,11.7768915 C54.2615908,12.0957903 54.2136748,12.5712216 53.9055091,12.8327575 C53.7692773,12.946511 53.6086177,13.0038739 53.4470186,13.0038739 C53.2375035,13.0038739 53.0279885,12.9085932 52.88518,12.730671 C48.2429644,6.88549045 42.4113043,8.07455495 40.0916058,8.86791279 L40.638412,8.98944432 C41.0311354,9.07694703 41.2810502,9.47557045 41.1964926,9.88197189 C41.1232093,10.2348995 40.8216203,10.4740735 40.4880873,10.4740735 C40.4364132,10.4740735 40.384739,10.4711568 40.3340044,10.4594897 L36.8765356,9.68460468 Z M56.889455,31.3434681 C55.1936041,31.3434681 53.5494274,30.7669225 52.2059001,29.7178623 C50.8595542,30.7669225 49.2191356,31.3434681 47.5195266,31.3434681 C43.2221183,31.3434681 39.7242497,27.7247452 39.7242497,23.2766912 C39.7242497,18.8296094 43.2221183,15.2138032 47.5195266,15.2138032 C49.2191356,15.2138032 50.8595542,15.7913211 52.2059001,16.843298 C53.5531855,15.7913211 55.1936041,15.2138032 56.889455,15.2138032 C61.1868632,15.2138032 64.6809737,18.8296094 64.6809737,23.2766912 C64.6809737,27.7286342 61.1868632,31.3434681 56.889455,31.3434681 L56.889455,31.3434681 Z" id="Fill-8" sketch:type="MSShapeGroup"></path>
        </g>
        <g id="Imported-Layers" sketch:type="MSLayerGroup" transform="translate(34.500000, 79.000000)" fill="#fff">
            <path d="M203.746723,0.353541622 L27.0136947,0.353541622 C22.5791152,0.353541622 18.9675635,3.93785189 18.9675635,8.37592757 L18.9675635,113.227346 C18.9675635,117.665422 22.5791152,121.264776 27.0136947,121.264776 L203.746723,121.264776 C208.181303,121.264776 211.792854,117.680466 211.792854,113.227346 L211.792854,8.38721081 C211.792854,3.93785189 208.181303,0.353541622 203.746723,0.353541622 L203.746723,0.353541622 Z M115.709044,2.58762378 C118.19316,2.58762378 120.203754,4.61484649 120.203754,7.09716 C120.203754,9.57947351 118.19316,11.5916519 115.709044,11.5916519 C113.228686,11.5916519 111.20306,9.57947351 111.20306,7.09716 C111.20306,4.61484649 113.213654,2.58762378 115.709044,2.58762378 L115.709044,2.58762378 Z M200.225366,100.214005 C200.225366,104.64832 196.613815,108.247675 192.179235,108.247675 L38.5811828,108.247675 C34.1466032,108.247675 30.5350516,104.663364 30.5350516,100.214005 L30.5350516,22.3746714 C30.5350516,17.9403568 34.1466032,14.3522854 38.5811828,14.3522854 L192.179235,14.3522854 C196.613815,14.3522854 200.225366,17.9403568 200.225366,22.3746714 L200.225366,100.214005 Z" id="Fill-1" sketch:type="MSShapeGroup"></path>
            <path d="M231.068243,127.801535 C231.068243,137.016184 223.623411,141.627269 214.449844,141.627269 L16.8104036,141.627269 C7.62180441,141.627269 0.161939624,137.001139 0.161939624,127.801535 L81.6830413,127.801535 C83.6335047,129.832519 86.3656567,131.107525 89.4172488,131.107525 L141.166537,131.107525 C144.203097,131.107525 146.950282,129.832519 148.900745,127.801535 L231.068243,127.801535 Z" id="Fill-2" sketch:type="MSShapeGroup"></path>
            <path d="M174.005964,86.7267686 L155.888076,78.9676584 L155.888076,42.7822973 L174.005964,35.023187 L174.005964,86.7267686 Z" id="Fill-4" sketch:type="MSShapeGroup"></path>
            <path d="M190.069744,81.085147 L178.618757,75.3382151 L178.618757,48.5254681 L190.069744,42.7822973 L190.069744,81.085147 Z" id="Fill-5" sketch:type="MSShapeGroup"></path>
            <path d="M57.5060775,86.7267686 L75.6202076,78.9676584 L75.6202076,42.7822973 L57.5060775,35.023187 L57.5060775,86.7267686 Z" id="Fill-6" sketch:type="MSShapeGroup"></path>
            <path d="M41.4385395,81.085147 L52.8895259,75.3382151 L52.8895259,48.5254681 L41.4385395,42.7822973 L41.4385395,81.085147 Z" id="Fill-7" sketch:type="MSShapeGroup"></path>
        </g>
    </g>
</svg>