<?xml version="1.0" encoding="UTF-8" standalone="no"?>
<svg width="300px" height="300px" viewBox="0 0 300 300" version="1.1" xmlns="http://www.w3.org/2000/svg" xmlns:xlink="http://www.w3.org/1999/xlink" xmlns:sketch="http://www.bohemiancoding.com/sketch/ns">
    <!-- Generator: Sketch 3.1 (8751) - http://www.bohemiancoding.com/sketch -->
    <title>Slice 2</title>
    <desc>Created with Sketch.</desc>
    <defs></defs>
    <g id="Page-1" stroke="none" stroke-width="1" fill="none" fill-rule="evenodd" sketch:type="MSPage">
        <g id="Imported-Layers" sketch:type="MSLayerGroup" transform="translate(43.000000, 93.000000)" fill="#fff">
            <path d="M203.582653,0.376 L26.1190133,0.376 C21.6815733,0.376 18.0554,4.188 18.0554,8.892 L18.0554,120.436 C18.0554,125.14 21.6815733,128.952 26.1190133,128.952 L135.074013,128.952 L135.074013,115.124 L37.7484267,115.124 C33.2808,115.124 29.6546267,111.28 29.6546267,106.58 L29.6546267,23.78 C29.6546267,19.08 33.2808,15.264 37.7484267,15.264 L191.95324,15.264 C196.39068,15.264 200.04704,19.08 200.04704,23.78 L200.04704,40.968 L207.401267,40.968 C209.552067,40.968 211.646267,42.736 211.646267,44.032 L211.646267,8.936 C211.646267,4.188 208.020093,0.376 203.582653,0.376 L203.582653,0.376 Z M115.173453,12.344 C112.683053,12.344 110.649227,10.22 110.649227,7.548 C110.649227,4.908 112.683053,2.752 115.173453,2.752 C117.667627,2.752 119.671267,4.908 119.671267,7.548 C119.671267,10.188 117.667627,12.344 115.173453,12.344 L115.173453,12.344 Z M139.25864,115.124 L139.25864,128.952 L144.122467,128.952 L144.122467,115.124 L139.25864,115.124 Z M205.95608,63.736 L205.95608,77.752 L210.819907,77.752 L210.819907,52.408 C210.819907,48.564 207.842747,45.452 204.231667,45.452 L200.04704,45.452 L200.04704,56.796 C203.348707,57.172 205.95608,60.108 205.95608,63.736 L205.95608,63.736 Z" id="Fill-1" sketch:type="MSShapeGroup"></path>
            <path d="M204.231667,45.436 L145.877067,45.436 C142.220707,45.436 139.25864,48.564 139.25864,52.392 L139.25864,143.624 C139.25864,147.5 142.2358,150.608 145.84688,150.608 L190.670307,150.608 L190.670307,138.42 L150.740893,138.42 C148.707067,138.42 146.86568,137.468 145.64312,135.936 L145.64312,135.92 C144.684693,134.688 144.107373,133.156 144.107373,131.484 L144.107373,63.736 C144.107373,59.86 147.084533,56.752 150.7258,56.752 L199.32256,56.752 C199.545187,56.752 199.80932,56.752 200.031947,56.78 C203.348707,57.172 205.940987,60.108 205.940987,63.736 L205.940987,77.752 L210.804813,77.752 L210.804813,52.408 C210.819907,48.564 207.85784,45.436 204.231667,45.436 L204.231667,45.436 Z M175.373213,140.844 C177.40704,140.844 179.086173,142.58 179.086173,144.752 C179.086173,146.936 177.422133,148.688 175.373213,148.688 C173.3092,148.688 171.65648,146.952 171.65648,144.752 C171.65648,142.58 173.294107,140.844 175.373213,140.844 L175.373213,140.844 Z" id="Fill-2" sketch:type="MSShapeGroup"></path>
            <path d="M226.871667,82.092 L198.424507,82.092 C196.020893,82.092 194.09272,84.14 194.09272,86.688 L194.09272,146.624 C194.09272,148.36 194.97568,149.828 196.30012,150.608 C196.92272,151 197.65852,151.204 198.424507,151.204 L226.871667,151.204 C229.27528,151.204 231.23364,149.156 231.23364,146.608 L231.23364,86.688 C231.23364,84.14 229.27528,82.092 226.871667,82.092 L226.871667,82.092 Z M197.303827,94.124 C197.303827,92.172 198.4396,90.532 200.04704,89.86 C200.5338,89.656 201.062067,89.532 201.639387,89.532 L223.686973,89.532 C226.090587,89.532 228.05272,91.58 228.05272,94.124 L228.05272,138.608 C228.05272,141.156 226.10568,143.204 223.686973,143.204 L201.639387,143.204 C199.26596,143.204 197.303827,141.156 197.303827,138.608 L197.303827,94.124 Z M212.472627,149.936 C211.144413,149.936 210.069013,148.796 210.069013,147.36 C210.069013,147.124 210.0992,146.908 210.185987,146.704 C210.216173,146.436 210.333147,146.188 210.465213,145.984 C210.465213,145.984 210.465213,145.952 210.4954,145.92 C210.921787,145.264 211.66136,144.812 212.472627,144.812 C213.827253,144.812 214.902653,145.952 214.902653,147.36 C214.902653,148.796 213.827253,149.936 212.472627,149.936 L212.472627,149.936 Z" id="Fill-3" sketch:type="MSShapeGroup"></path>
            <path d="M135.074013,146 C135.074013,146.548 134.896667,150.624 137.960613,150.624 L15.85932,150.624 C6.63352,150.624 -0.841453333,145.704 -0.841453333,135.92 L78.1796933,135.92 C80.12296,138.08 82.9114533,139.436 85.9603067,139.436 L135.05892,139.436 L135.05892,146 L135.074013,146 Z" id="Fill-4" sketch:type="MSShapeGroup"></path>
        </g>
    </g>
</svg>