<?xml version="1.0" encoding="UTF-8" standalone="no"?>
<svg width="300px" height="300px" viewBox="0 0 300 300" version="1.1" xmlns="http://www.w3.org/2000/svg" xmlns:xlink="http://www.w3.org/1999/xlink" xmlns:sketch="http://www.bohemiancoding.com/sketch/ns">
    <!-- Generator: Sketch 3.1 (8751) - http://www.bohemiancoding.com/sketch -->
    <title>Slice 2</title>
    <desc>Created with Sketch.</desc>
    <defs></defs>
    <g id="Page-1" stroke="none" stroke-width="1" fill="none" fill-rule="evenodd" sketch:type="MSPage">
        <g id="Imported-Layers" sketch:type="MSLayerGroup" transform="translate(51.000000, 54.000000)" fill="#fff">
            <path d="M58.4051733,63.74912 C58.4051733,74.11968 49.6889733,82.52928 38.9297067,82.52928 C28.1810533,82.52928 19.4648533,74.11968 19.4648533,63.74912 C19.4648533,53.38112 28.1810533,44.96896 38.9297067,44.96896 C49.6889733,44.96896 58.4051733,53.38112 58.4051733,63.74912" id="Fill-1" sketch:type="MSShapeGroup"></path>
            <path d="M166.008453,82.52928 C166.008453,98.67008 152.452573,111.74912 135.73392,111.74912 C119.007307,111.74912 105.448773,98.67008 105.448773,82.52928 C105.448773,66.40128 119.007307,53.31968 135.73392,53.31968 C152.452573,53.31968 166.008453,66.40128 166.008453,82.52928" id="Fill-2" sketch:type="MSShapeGroup"></path>
            <path d="M182.241547,140.96896 L182.241547,182.70976 L89.2289467,182.70976 L89.2289467,140.96896 C89.2289467,127.1296 100.847893,115.90912 115.1812,115.90912 L156.276027,115.90912 C170.6226,115.91936 182.241547,127.1296 182.241547,140.96896 L182.241547,140.96896 Z" id="Fill-3" sketch:type="MSShapeGroup"></path>
            <path d="M26.14064,101.4912 C30.6486533,97.1392 37.7569333,97.1392 51.9045067,97.1392 L64.2902667,97.1392 C59.5859067,90.8288 51.9257333,86.69952 43.2626,86.69952 L34.6074267,86.69952 C23.1238,86.69952 13.3913733,93.91104 9.97122667,103.87968 C13.72304,103.42912 18.45924,103.40096 24.5539467,103.39072 C25.0209333,102.70976 25.5383333,102.08 26.14064,101.4912 L26.14064,101.4912 Z" id="Fill-4" sketch:type="MSShapeGroup"></path>
            <path d="M84.8960533,157.66016 L84.8960533,157.66016 L81.4440667,157.66016 L84.8960533,157.66016 Z" id="Fill-5" sketch:type="MSShapeGroup"></path>
            <path d="M113.647573,108.21888 C113.896987,109.30944 114.103947,110.4896 114.239267,111.80032 C114.549707,111.79008 114.860147,111.74912 115.1812,111.74912 L119.015267,111.74912 C117.110173,110.73024 115.31652,109.55008 113.647573,108.21888 L113.647573,108.21888 Z" id="Fill-6" sketch:type="MSShapeGroup"></path>
            <path d="M173.047747,107.57888 L158.54728,107.57888 C156.681987,109.1712 154.63892,110.5792 152.452573,111.74912 L156.28664,111.74912 C172.984067,111.74912 186.571787,124.85888 186.571787,140.96896 L186.571787,157.40928 C199.010613,156.48 199.010613,152.22016 199.010613,132.6208 C199,107.57888 199,107.57888 173.047747,107.57888 L173.047747,107.57888 Z" id="Fill-7" sketch:type="MSShapeGroup"></path>
            <path d="M21.6299733,136.79104 L21.6299733,126.3488 C21.6299733,117.74976 21.6299733,111.84896 22.7602933,107.5712 C0.0212266667,107.61984 0,108.6592 0,132.6208 C0,156.83072 0,157.63968 23.4554667,157.66016 C21.6299733,153.25952 21.6299733,146.89024 21.6299733,136.79104 L21.6299733,136.79104 Z" id="Fill-8" sketch:type="MSShapeGroup"></path>
            <path d="M94.6815467,115.91936 L41.58304,115.91936 C40.11044,115.91936 38.9297067,114.99008 38.9297067,113.8304 C38.9297067,112.68096 40.1210533,111.73888 41.58304,111.73888 L94.6815467,111.73888 C96.1514933,111.73888 97.33488,112.67072 97.33488,113.8304 C97.33488,114.99008 96.1514933,115.91936 94.6815467,115.91936 L94.6815467,115.91936 Z" id="Fill-9" sketch:type="MSShapeGroup"></path>
            <path d="M92.0176,122.18112 L41.5936533,122.18112 C40.1210533,122.18112 38.94032,123.1104 38.94032,124.27008 C38.94032,125.41952 40.1316667,126.35904 41.5936533,126.35904 L89.00076,126.35904 C89.8816667,124.87936 90.88728,123.47904 92.0176,122.18112 L92.0176,122.18112 Z" id="Fill-10" sketch:type="MSShapeGroup"></path>
            <path d="M86.1723067,132.6208 L41.4901733,132.6208 C40.0786,132.6208 38.9297067,133.55008 38.9297067,134.70976 C38.9297067,135.8592 40.07064,136.80128 41.4901733,136.80128 L85.2489467,136.80128 C85.4559067,135.37024 85.7557333,133.96992 86.1723067,132.6208 L86.1723067,132.6208 Z" id="Fill-11" sketch:type="MSShapeGroup"></path>
            <path d="M84.8960533,143.05024 L41.3973067,143.05024 C40.0388,143.05024 38.94032,143.97952 38.94032,145.1392 C38.94032,146.2912 40.0388,147.23072 41.3973067,147.23072 L84.9066667,147.23072 L84.9066667,143.05024 L84.8960533,143.05024 Z" id="Fill-12" sketch:type="MSShapeGroup"></path>
            <path d="M162.227453,17.84064 C162.227453,18.43968 162.123973,19.04896 161.924973,19.6608 C161.033453,22.33088 158.183773,24.86016 153.81108,27.08992 L142.7626,32.45056 L132.51012,46.59968 L129.42164,34.16064 C119.970467,35.71968 109.00424,36.6208 97.3454933,36.6208 C95.7481867,36.6208 94.1614933,36.60032 92.60664,36.55936 L75.7128667,36.6208 L60.4455867,42.88 L63.5871333,33.86112 C44.9209333,30.56128 32.46088,24.61952 32.46088,17.8304 C32.46088,9.71008 50.2886267,2.78016 75.2671067,0.16896 C78.2733333,-0.1408 81.3618133,-0.4096 84.5643867,-0.59904 C88.6797067,-0.8192 92.9701467,-0.94976 97.33488,-0.94976 C105.687573,-0.94976 113.6688,-0.48896 120.997307,0.34048 C145.145293,3.07968 162.227453,9.87904 162.227453,17.84064 L162.227453,17.84064 Z" id="Fill-13" sketch:type="MSShapeGroup"></path>
            <path d="M109.948827,112.20992 C107.677573,112.60928 105.47,113.21088 103.397747,114.05056 C102.2462,105.5104 97.88412,105.48992 81.4652933,105.48992 L53.4699733,105.48992 C31.1050267,105.48992 31.1050267,105.48992 31.1050267,127.07072 L31.1050267,136.0896 C31.1050267,157.6704 31.1050267,157.6704 53.4699733,157.6704 L84.8960533,157.6704 L84.8960533,172.28032 L22.1686,172.28032 C6.4874,172.28032 6.4874,172.28032 18.01348,166.10048 C25.9522533,161.84064 25.9522533,161.84064 36.7619333,161.84064 L51.9045067,161.84064 C25.9522533,161.84064 25.9522533,161.84064 25.9522533,136.80128 L25.9522533,126.35904 C25.9522533,101.31968 25.9522533,101.31968 51.9045067,101.31968 L84.3468133,101.31968 C104.018627,101.31968 108.776053,101.34016 109.948827,112.20992 L109.948827,112.20992 Z" id="Fill-14" sketch:type="MSShapeGroup"></path>
        </g>
    </g>
</svg>