<?xml version="1.0" encoding="UTF-8" standalone="no"?>
<svg width="300px" height="300px" viewBox="0 0 300 300" version="1.1" xmlns="http://www.w3.org/2000/svg" xmlns:xlink="http://www.w3.org/1999/xlink" xmlns:sketch="http://www.bohemiancoding.com/sketch/ns">
    <!-- Generator: Sketch 3.1 (8751) - http://www.bohemiancoding.com/sketch -->
    <title>Slice 2</title>
    <desc>Created with Sketch.</desc>
    <defs></defs>
    <g id="Page-1" stroke="none" stroke-width="1" fill="none" fill-rule="evenodd" sketch:type="MSPage">
        <g id="Imported-Layers" sketch:type="MSLayerGroup" transform="translate(63.000000, 56.000000)" fill="#fff">
            <path d="M162.2338,144.164533 L111.76404,144.164533 L111.76404,124.315107 C111.76404,121.45276 109.27164,119.13396 106.195,119.13396 L73.365,119.13396 C70.28836,119.13396 67.79596,121.45276 67.79596,124.315107 L67.79596,144.164533 L18.10072,144.164533 C15.0214,144.164533 12.5424,146.483333 12.5424,149.3382 L12.5424,171.7782 C12.5424,174.640547 15.03212,176.949373 18.10072,176.949373 L162.2338,176.949373 C165.31312,176.949373 167.80284,174.630573 167.80284,171.7782 L167.80284,149.34568 C167.79212,146.483333 165.3024,144.164533 162.2338,144.164533 L162.2338,144.164533 Z" id="Fill-1" sketch:type="MSShapeGroup"></path>
            <path d="M102.51,11.5516133 C102.51,26.8706533 77.82452,26.8706533 77.82452,11.5516133 C77.82452,-3.75994667 102.51,-3.75994667 102.51,11.5516133" id="Fill-2" sketch:type="MSShapeGroup"></path>
            <path d="M76.85168,40.7709867 L74.69428,69.54156 L78.725,69.54156 L78.725,69.9105733 L74.62192,110.836147 C74.32712,113.71844 76.61048,116.271613 79.69784,116.533413 C79.8774,116.55336 80.05428,116.55336 80.23384,116.55336 C83.10144,116.55336 85.55096,114.5188 85.82164,111.81104 L89.80144,72.18948 L90.5438,72.18948 L94.5236,111.81104 C94.79428,114.5188 97.2438,116.55336 100.12212,116.55336 C100.30168,116.55336 100.46784,116.543387 100.65812,116.533413 C103.74548,116.26164 106.01812,113.708467 105.73404,110.836147 L101.60952,69.9105733 L101.60952,69.54156 L105.62952,69.54156 L103.48284,40.4493467 L123.615,18.76732 C125.63572,16.5682 125.35164,13.2645333 122.9986,11.38456 C121.94,10.5468 120.64288,10.12792 119.34308,10.12792 C117.76188,10.12792 116.18336,10.7512533 115.06312,11.96052 L99.07692,28.1572133 C99.07692,22.5472133 96.89808,26.53156 90.45,26.53156 L89.86308,26.53156 C83.415,26.53156 81.24688,22.5472133 81.24688,28.1572133 L65.26336,12.2721867 C64.14312,11.0654133 62.57264,10.44208 60.98072,10.44208 C59.6836,10.44208 58.39452,10.8509867 57.32788,11.6962267 C54.97216,13.5762 54.68808,16.8798667 56.7088,19.0789867 L76.85168,40.7709867 Z" id="Fill-3" sketch:type="MSShapeGroup"></path>
            <path d="M118.8312,30.9123467 C118.8312,30.9123467 119.93,37.0683867 126.35664,35.8017733 C126.35664,35.8017733 130.39808,35.0537733 133.62212,33.2012267 C133.26836,34.27336 133.07808,35.40284 133.07808,36.5821867 C133.07808,42.9227333 138.60692,48.0639867 145.42216,48.0639867 C152.2374,48.0639867 157.76356,42.9227333 157.76356,36.5821867 C157.76356,30.24164 152.2374,25.0978933 145.42216,25.0978933 C141.40216,25.0978933 137.84312,26.8906 135.59192,29.6582 C133.70788,28.3816133 129.77096,26.5789333 126.30572,30.5433333 C126.30572,30.53336 123.41668,33.9417467 118.8312,30.9123467 L118.8312,30.9123467 Z" id="Fill-4" sketch:type="MSShapeGroup"></path>
            <path d="M178.26288,36.4076533 C177.20428,35.5698933 175.90716,35.1510133 174.60736,35.1510133 C173.02616,35.1510133 171.44764,35.7743467 170.3274,36.98112 L154.3412,53.1778133 C154.3412,47.5777867 152.16236,51.55216 145.71428,51.55216 L145.12736,51.55216 C138.67928,51.55216 136.50312,47.5678133 136.50312,53.1778133 L120.51692,37.2927867 C119.39668,36.07604 117.8262,35.46268 116.23428,35.46268 C114.93716,35.46268 113.63736,35.88156 112.58144,36.71932 C110.215,38.5968 109.94164,41.9004667 111.95164,44.10208 L132.09452,65.7915867 L126.88192,108.761693 L132.57692,108.761693 L129.85404,135.856747 C129.56192,138.73156 131.83188,141.28224 134.93264,141.554013 C135.10952,141.57396 135.2864,141.57396 135.45524,141.57396 C138.32284,141.57396 140.77236,139.5394 141.04572,136.83164 L141.04572,136.80172 L145.02284,111.412107 L145.76788,111.412107 L149.745,136.821667 C150.01836,139.5394 152.46788,141.563987 155.33548,141.563987 C155.51236,141.563987 155.69192,141.554013 155.8688,141.546533 C158.95616,141.272267 161.2288,138.721587 160.9474,135.846773 L158.22452,108.75172 L163.9088,108.75172 L158.74712,65.47992 L178.87928,43.7978933 C180.9,41.5987733 180.6186,38.2851333 178.26288,36.4076533 L178.26288,36.4076533 Z" id="Fill-5" sketch:type="MSShapeGroup"></path>
            <path d="M15.06428,35.8017733 C15.06428,35.8017733 19.10572,35.0537733 22.32976,33.2012267 C21.97332,34.27336 21.78572,35.40284 21.78572,36.5821867 C21.78572,42.9227333 27.31188,48.0639867 34.12712,48.0639867 C40.94236,48.0639867 46.4712,42.9227333 46.4712,36.5821867 C46.4712,30.24164 40.94236,25.0978933 34.12712,25.0978933 C30.10712,25.0978933 26.54808,26.8906 24.29688,29.6582 C22.41284,28.3816133 18.4786,26.5789333 15.01336,30.5433333 C15.01336,30.5433333 12.12164,33.9616933 7.53616,30.92232 C7.53616,30.9123467 8.63764,37.0683867 15.06428,35.8017733 L15.06428,35.8017733 Z" id="Fill-6" sketch:type="MSShapeGroup"></path>
            <path d="M15.60832,108.761693 L21.30332,108.761693 L18.58312,135.856747 C18.28832,138.73156 20.56096,141.28224 23.65904,141.554013 C23.8386,141.57396 24.01548,141.57396 24.18164,141.57396 C27.05192,141.57396 29.50144,139.5394 29.77212,136.83164 L29.77212,136.80172 L33.7412,111.412107 L34.505,111.412107 L38.48212,136.821667 C38.75548,139.5394 41.205,141.563987 44.0726,141.563987 C44.25216,141.563987 44.42904,141.554013 44.6086,141.546533 C47.69596,141.272267 49.9686,138.721587 49.68452,135.846773 L46.96164,108.75172 L52.65664,108.75172 L47.45476,65.47992 L67.58692,43.7978933 C69.60764,41.5987733 69.32356,38.2951067 66.95712,36.4151333 C65.9012,35.5798667 64.6014,35.1609867 63.30428,35.1609867 C61.71236,35.1609867 60.14188,35.78432 59.02164,36.9910933 L43.03812,53.1877867 C43.03812,47.58776 40.85928,51.5621333 34.42192,51.5621333 L33.835,51.5621333 C27.38692,51.5621333 25.2188,47.5777867 25.2188,53.1877867 L9.2326,37.30276 C8.11236,36.0860133 6.54188,35.4726533 4.95264,35.4726533 C3.65284,35.4726533 2.35572,35.8915333 1.29712,36.7268 C-1.06664,38.6067733 -1.34,41.91044 0.68072,44.10956 L20.8236,65.80156 L15.60832,108.761693 Z" id="Fill-7" sketch:type="MSShapeGroup"></path>
        </g>
    </g>
</svg>